=!HD DESI ROCKER RELEASES!=












 

Release Title:Shrek(2001)720p Brrip[Dual Audio][Eng-Hindi]~BONIIN

Release Date: 18 May 2001 (USA)
Release Length: 1h 26mn

Tagline:The greatest fairy tale never told. 
Storyline:When a green ogre called Shrek discovers his swamp has been 'swamped'
with all sorts of fairytale creatures by the scheming Lord Farquaad, Shrek sets
out, with a very loud donkey by his side, to 'persuade' Farquaad to give his swamp
back. Instead, a deal is made. Farquaad, who wants to become the King, sends Shrek
to rescue Princess Fiona, who is waiting for her one true love. But once they head
back with Fiona, it starts to become apparent that not only does Shrek like Fiona,
but Fiona is keeping something secret. 
 






Cast:

 Mike Myers ...  Shrek (voice) 

 Eddie Murphy ...  Donkey (voice) 

 Cameron Diaz ...  Princess Fiona (voice) 

 John Lithgow ...  Lord Farquaad (voice) 

 Vincent Cassel ...  Monsieur Hood (voice) 

 Peter Dennis ...  Ogre Hunter (voice) 

 Clive Pearse ...  Ogre Hunter (voice) 

 Jim Cummings ...  Captain of Guards (voice) 

 Bobby Block ...  Baby Bear (voice) 

 Chris Miller ...  Geppetto / Magic Mirror (voice) 

 Cody Cameron ...  Pinocchio / Three Pigs (voice) 

 Kathleen Freeman ...  Old Woman (voice) 

 Michael Galasso ...  Peter Pan (voice) 

 Christopher Knights ...  Blind Mouse / Thelonious (voice) 

 Simon J. Smith ...  Blind Mouse (voice) 



 





General INFO:

Title............................: Shrek(2001)720p Brrip[Dual Audio][Eng-Hindi]~BONIIN
Genre............................: Animation | Adventure | Comedy | Family | Fantasy
Directer.........................: Andrew Adamson & Vicky Jenson
Writer...........................: William Steig & Ted Elliott
IMDB.............................: http://www.imdb.com/title/tt0126029/
year.............................: 18 May 2001 (USA) 
User Rating......................: 8.0/10   161,895 votes » 
Awards...........................: Won Oscar. Another 29 wins & 44 nominations   
VIDEO Source.....................: sherk1 1080p Bluray x264-CBGB                                                   
File size........................: 1.67 GiB
Run time.........................: 1h 26mn
Languages........................: English.Hindi
Subtittle........................: English
Ripper...........................: BONIIN[BOW]





Video
ID                               : 1
Format                           : AVC-Matroska
Format/Info                      : Advanced Video Codec
Format profile                   : Main@L4.1
Format settings, CABAC           : Yes
Format settings, ReFrames        : 3 frames
Muxing mode                      : Container profile=Unknown@4.1
Codec ID                         : V_MPEG4/ISO/AVC
Duration                         : 1h 26mn
Overall bit rate                 : 2 771 Kbps
Bit rate                         : 2 012 Kbps
Nominal bit rate                 : 1 986 Kbps
Width                            : 1 264 pixels
Height                           : 704 pixels
Display aspect ratio             : 16:9
Frame rate                       : 25.000 fps
Original frame rate              : 23.976 fps
Resolution                       : 8 bits
Colorimetry                      : 4:2:0
Scan type                        : Progressive
Bits/(Pixel*Frame)               : 0.090
Stream size                      : 1.21 GiB (73%)
Title                            : Ripper~Boniin
Writing library                  : x264 core 68 r1183M f21daff
Encoding settings                : cabac=1 / ref=3 / deblock=1:0:0 Encoded date                    
Writing application              : mkvmerge v3.3.0 ('Language') built on Mar 24 2010 14:59:24
Writing library                  : libebml v0.8.0 + libmatroska v0.9.0
Language                         : English


Audio #1
ID                               : 2
Format                           : AC-3
Format/Info                      : Audio Coding 3
Codec ID                         : A_AC3
Duration                         : 1h 26mn
Bit rate mode                    : Constant
Bit rate                         : 448 Kbps
Channel(s)                       : 6 channels
Channel positions                : Front: L C R, Side: L R, LFE
Sampling rate                    : 48.0 KHz
Video delay                      : 20ms
Stream size                      : 277 MiB (16%)
Title                            : Ripper~Boniin~Ac3 5.1 channel
Language                         : English

Audio #2
ID                               : 3
Format                           : AC-3
Format/Info                      : Audio Coding 3
Codec ID                         : A_AC3
Duration                         : 1h 26mn
Bit rate mode                    : Constant
Bit rate                         : 256 Kbps
Channel(s)                       : 2 channels
Channel positions                : Front: L R
Sampling rate                    : 48.0 KHz
Stream size                      : 158 MiB (9%)
Title                            : Ripper~Boniin~Ac3~256 Kb/s
Language                         : Hindi






screen shots:
 
http://img256.imageshack.us/img256/9383/vlcsnap2010072820h03m37.png 
http://img535.imageshack.us/img535/6016/vlcsnap2010072820h15m02.png 
http://img265.imageshack.us/img265/3421/snapshot20090911133647.jpg 
http://img841.imageshack.us/img841/1650/vlcsnap2010072820h15m32.png 
http://img530.imageshack.us/img530/3960/vlcsnap2010072820h15m39.png 
http://img203.imageshack.us/img203/2120/snapshot20090911133532.jpg 
http://img210.imageshack.us/img210/6308/snapshot20090911133417.jpg 
http://img689.imageshack.us/img689/8928/snapshot20090911134249.jpg 
http://img687.imageshack.us/img687/9049/vlcsnap2010072820h19m27.png 
http://img25.imageshack.us/img25/9321/vlcsnap2010072820h20m44.png 
http://img823.imageshack.us/img823/4171/vlcsnap2010072820h21m34.png 
http://img828.imageshack.us/img828/1167/vlcsnap2010072820h19m56.png